<svg width="38" height="24" viewBox="0 0 38 24" fill="none" xmlns="http://www.w3.org/2000/svg">
<g clip-path="url(#clip0_1_110)">
<path fill-rule="evenodd" clip-rule="evenodd" d="M10.646 8.71628C10.646 9.21015 10.6963 9.61065 10.7843 9.90427C10.8848 10.198 11.0104 10.5183 11.1863 10.8653C11.2491 10.9721 11.2743 11.0789 11.2743 11.1724C11.2743 11.3058 11.1988 11.4393 11.0355 11.5728L10.244 12.1334C10.131 12.2135 10.0177 12.2536 9.91737 12.2536C9.79175 12.2536 9.66606 12.1868 9.54044 12.0667C9.36454 11.8664 9.21379 11.6529 9.08817 11.4393C8.96255 11.2124 8.83685 10.9588 8.69867 10.6518C7.71856 11.8798 6.48747 12.4938 5.00495 12.4938C3.9496 12.4938 3.10784 12.1735 2.49221 11.5328C1.87659 10.892 1.5625 10.0378 1.5625 8.96992C1.5625 7.83532 1.93928 6.91431 2.7058 6.22021C3.47218 5.5261 4.48984 5.17906 5.7839 5.17906C6.21094 5.17906 6.6508 5.2191 7.11565 5.28584C7.58052 5.35258 8.05793 5.45937 8.56048 5.5795V4.60509C8.56048 3.59063 8.35944 2.88319 7.97002 2.4694C7.56795 2.05561 6.88951 1.85539 5.9221 1.85539C5.48237 1.85539 5.03008 1.90878 4.56522 2.02891C4.10037 2.14904 3.64807 2.29587 3.20835 2.48275C3.00733 2.57618 2.85656 2.62958 2.76861 2.65627C2.68066 2.68297 2.61785 2.69631 2.56747 2.69631C2.3917 2.69631 2.30376 2.56283 2.30376 2.28252V1.62847C2.30376 1.4149 2.32889 1.25472 2.3917 1.16129C2.45452 1.06785 2.56747 0.974408 2.74349 0.880973C3.18309 0.640709 3.71089 0.440487 4.32651 0.280309C4.94213 0.106785 5.59545 0.0266962 6.28645 0.0266962C7.78155 0.0266962 8.87456 0.387095 9.57815 1.10789C10.2692 1.82869 10.621 2.92323 10.621 4.39152V8.71628H10.646ZM5.54519 10.7452C5.95979 10.7452 6.38683 10.6652 6.83925 10.505C7.29154 10.3448 7.69357 10.0511 8.03279 9.6507C8.23382 9.39705 8.38444 9.11678 8.46 8.79638C8.53534 8.47605 8.58562 8.08897 8.58562 7.63508V7.07449C8.22125 6.98105 7.83175 6.90096 7.42976 6.84757C7.0277 6.79417 6.63823 6.76748 6.24875 6.76748C5.40699 6.76748 4.79137 6.941 4.37677 7.3014C3.96216 7.66178 3.76114 8.169 3.76114 8.83643C3.76114 9.4638 3.91191 9.93097 4.226 10.2513C4.52753 10.585 4.96726 10.7452 5.54519 10.7452ZM15.6338 12.1868C15.4077 12.1868 15.257 12.1468 15.1564 12.0533C15.0559 11.9732 14.9679 11.7863 14.8926 11.5328L11.9401 1.21468C11.8646 0.947715 11.827 0.774188 11.827 0.680753C11.827 0.467183 11.9274 0.347051 12.1285 0.347051H13.3598C13.5984 0.347051 13.7619 0.387095 13.8498 0.480531C13.9503 0.56062 14.0257 0.747493 14.1011 1.00111L16.2118 9.83753L18.1716 1.00111C18.2345 0.734145 18.3097 0.56062 18.4104 0.480531C18.5109 0.400442 18.6867 0.347051 18.913 0.347051H19.918C20.1566 0.347051 20.3201 0.387095 20.4206 0.480531C20.5211 0.56062 20.609 0.747493 20.6593 1.00111L22.6442 9.94432L24.8179 1.00111C24.8932 0.734145 24.9812 0.56062 25.0691 0.480531C25.1697 0.400442 25.333 0.347051 25.5591 0.347051H26.7275C26.9286 0.347051 27.0417 0.453835 27.0417 0.680753C27.0417 0.747493 27.0291 0.81423 27.0166 0.894323C27.0039 0.974407 26.9789 1.08119 26.9286 1.22803L23.9007 11.5461C23.8252 11.813 23.7373 11.9866 23.6368 12.0667C23.5364 12.1468 23.3731 12.2002 23.1595 12.2002H22.0789C21.8403 12.2002 21.677 12.1601 21.5764 12.0667C21.4758 11.9732 21.3879 11.7997 21.3378 11.5328L19.3904 2.92323L17.4555 11.5194C17.3926 11.7863 17.3174 11.9599 17.2169 12.0533C17.1163 12.1468 16.9404 12.1868 16.7143 12.1868H15.6338ZM31.7782 12.5472C31.1249 12.5472 30.4716 12.4671 29.8434 12.3069C29.2152 12.1468 28.7252 11.9732 28.3985 11.7731C28.1976 11.6529 28.0592 11.5194 28.0091 11.3993C27.9588 11.2791 27.9337 11.1457 27.9337 11.0255V10.3448C27.9337 10.0645 28.0342 9.93097 28.2226 9.93097C28.298 9.93097 28.3733 9.94432 28.4487 9.97102C28.5242 9.99772 28.6371 10.0511 28.7629 10.1045C29.1899 10.3047 29.6549 10.4649 30.1448 10.5717C30.6475 10.6785 31.1373 10.7318 31.64 10.7318C32.4315 10.7318 33.0471 10.585 33.4742 10.2913C33.9014 9.99772 34.1276 9.5706 34.1276 9.02332C34.1276 8.64953 34.0145 8.34255 33.7882 8.08897C33.5622 7.83533 33.1351 7.60838 32.5193 7.39484L30.6977 6.79418C29.7806 6.48717 29.1021 6.03334 28.6875 5.43267C28.2729 4.84535 28.0592 4.1913 28.0592 3.4972C28.0592 2.93658 28.1724 2.4427 28.3985 2.01556C28.6245 1.58843 28.9262 1.21468 29.3031 0.921015C29.6801 0.614012 30.1072 0.387094 30.6098 0.226918C31.1123 0.0667404 31.64 0 32.1928 0C32.4691 0 32.7581 0.013348 33.0345 0.0533924C33.3235 0.0934365 33.5872 0.146829 33.8511 0.200221C34.1023 0.266962 34.3411 0.333702 34.5673 0.413791C34.7933 0.493879 34.9694 0.573968 35.095 0.654056C35.2709 0.760837 35.3965 0.867623 35.4719 0.987758C35.5473 1.09454 35.585 1.24137 35.585 1.42825V2.05561C35.585 2.33591 35.4845 2.48275 35.296 2.48275C35.1955 2.48275 35.0322 2.42936 34.8186 2.32257C34.1025 1.97552 33.2984 1.80199 32.4064 1.80199C31.6902 1.80199 31.1249 1.92212 30.7354 2.17573C30.346 2.42935 30.1449 2.81645 30.1449 3.36372C30.1449 3.73747 30.2705 4.05782 30.5218 4.31143C30.7731 4.56505 31.2379 4.81866 31.9038 5.04558L33.6878 5.64624C34.5924 5.95324 35.2458 6.38039 35.6353 6.92766C36.0247 7.47493 36.2132 8.10233 36.2132 8.79638C36.2132 9.37035 36.1001 9.89093 35.8865 10.3448C35.6604 10.7986 35.3588 11.1991 34.9694 11.5194C34.5799 11.8531 34.115 12.0934 33.5748 12.2669C33.0095 12.4537 32.4189 12.5472 31.7782 12.5472Z" fill="white"/>
<path fill-rule="evenodd" clip-rule="evenodd" d="M34.1521 19.0341C30.0186 22.2777 24.0132 23.9996 18.8496 23.9996C11.6129 23.9996 5.09237 21.1564 0.167406 16.4312C-0.222194 16.0575 0.129715 15.5503 0.594571 15.8439C5.92158 19.1275 12.4923 21.1164 19.2894 21.1164C23.8751 21.1164 28.9131 20.1019 33.5491 18.0196C34.2401 17.686 34.8307 18.5002 34.1521 19.0341ZM35.8734 16.9518C35.3456 16.231 32.3808 16.6048 31.0364 16.7783C30.6342 16.8316 30.5714 16.4579 30.9359 16.1776C33.2979 14.4157 37.1799 14.9229 37.6324 15.5102C38.0846 16.1109 37.5067 20.2354 35.2954 22.2109C34.9563 22.518 34.6296 22.3578 34.7802 21.9574C35.2828 20.6359 36.4011 17.6593 35.8734 16.9518Z" fill="#FF9900"/>
</g>
<defs>
<clipPath id="clip0_1_110">
<rect width="38" height="24" fill="white"/>
</clipPath>
</defs>
</svg>
