<svg width="41" height="41" viewBox="0 0 41 41" fill="none" xmlns="http://www.w3.org/2000/svg">
<path d="M35.8754 20.8547C35.8754 19.8095 35.789 18.7587 35.6045 17.7305H20.8086V23.6512H29.2815C28.9299 25.5607 27.8002 27.2499 26.146 28.3233V32.165H31.2009C34.1693 29.4871 35.8754 25.5325 35.8754 20.8547Z" fill="#4285F4"/>
<path d="M20.8107 35.8752C25.0414 35.8752 28.6093 34.5137 31.2088 32.1635L26.1539 28.3218C24.7475 29.2596 22.9319 29.7907 20.8165 29.7907C16.7242 29.7907 13.2543 27.0846 12.0093 23.4463H6.79297V27.4066C9.45589 32.5985 14.8797 35.8752 20.8107 35.8752Z" fill="#34A853"/>
<path d="M12.0042 23.4477C11.3471 21.5382 11.3471 19.4704 12.0042 17.5609V13.6006H6.79365C4.56878 17.9451 4.56878 23.0635 6.79365 27.408L12.0042 23.4477Z" fill="#FBBC04"/>
<path d="M20.8107 11.2106C23.0471 11.1767 25.2086 12.0015 26.8282 13.5156L31.3068 9.1259C28.4709 6.51582 24.7071 5.08084 20.8107 5.12604C14.8797 5.12604 9.45588 8.40276 6.79297 13.6003L12.0035 17.5606C13.2428 13.9167 16.7184 11.2106 20.8107 11.2106Z" fill="#EA4335"/>
</svg>
