<svg width="18" height="10" viewBox="0 0 18 10" fill="none" xmlns="http://www.w3.org/2000/svg">
<path d="M17.3753 4.35456C17.2181 4.17679 13.4702 2.95746e-09 8.74011 2.95746e-09C4.01 -0.000128337 0.26231 4.1768 0.104924 4.35456C-0.0349748 4.51268 -0.0349748 4.75012 0.104924 4.90827C0.262152 5.08603 4.01 9.26282 8.74011 9.26282C13.4702 9.26282 17.2179 5.08602 17.3753 4.90827C17.5151 4.75014 17.5151 4.5127 17.3753 4.35456ZM8.74011 8.42687C5.06537 8.42687 1.90812 5.54816 0.995682 4.63121C1.90671 3.71365 5.0588 0.835886 8.74011 0.835886C12.4149 0.835886 15.5721 3.7146 16.4845 4.63187C15.5735 5.54931 12.4214 8.42687 8.74011 8.42687Z" fill="#A8A8A8"/>
<path d="M8.73995 1.55273C7.04228 1.55273 5.66113 2.93388 5.66113 4.63155C5.66113 6.32921 7.04228 7.71036 8.73995 7.71036C10.4377 7.71036 11.8188 6.32921 11.8188 4.63155C11.8188 2.93375 10.4377 1.55273 8.73995 1.55273ZM8.73995 6.87461C7.50304 6.87461 6.49692 5.86836 6.49692 4.63158C6.49692 3.39467 7.50317 2.38855 8.73995 2.38855C9.97685 2.38855 10.983 3.3948 10.983 4.63158C10.983 5.86849 9.97685 6.87461 8.73995 6.87461Z" fill="#A8A8A8"/>
</svg>
