<svg width="25" height="24" viewBox="0 0 25 24" fill="none" xmlns="http://www.w3.org/2000/svg">
<g clip-path="url(#clip0_1_76)">
<path d="M0 0H24.2756V12.9559L23.074 14.812L24.2756 16.4641V24H0V11.7865L0.750986 10.9327L0 10.116V0Z" fill="#016FD0"/>
<path d="M4.71094 16.725V12.957H8.74635L9.17931 13.515L9.62658 12.957H24.2741V16.4652C24.2741 16.4652 23.8911 16.7212 23.448 16.725H15.3374L14.8492 16.131V16.725H13.2496V15.7111C13.2496 15.7111 13.0311 15.8526 12.5587 15.8526H12.0143V16.725H9.59234L9.15999 16.155L8.72105 16.725H4.71094Z" fill="white"/>
<path d="M0 10.116L0.91 8.01855H2.48375L3.00019 9.19343V8.01855H4.95651L5.26394 8.86778L5.56198 8.01855H14.3438V8.44546C14.3438 8.44546 14.8055 8.01855 15.5642 8.01855L18.4136 8.02838L18.9211 9.18795V8.01855H20.5583L21.0088 8.68463V8.01855H22.661V11.7866H21.0088L20.577 11.1183V11.7866H18.1717L17.9298 11.1926H17.2831L17.0452 11.7866H15.4139C14.7611 11.7866 14.3438 11.3684 14.3438 11.3684V11.7866H11.8843L11.3962 11.1926V11.7866H2.25061L2.00889 11.1926H1.36431L1.1243 11.7866H0V10.116Z" fill="white"/>
<path d="M1.2313 8.48242L0.00390625 11.3038H0.803005L1.02947 10.7389H2.34604L2.57134 11.3038H3.38804L2.16182 8.48242H1.2313ZM1.68541 9.13905L2.08672 10.1263H1.28293L1.68541 9.13905Z" fill="#016FD0"/>
<path d="M3.47266 11.3038V8.48242L4.60822 8.48662L5.2687 10.3057L5.91336 8.48242H7.03984V11.3038H6.32641V9.22492L5.57015 11.3038H4.94446L4.1861 9.22492V11.3038H3.47266Z" fill="#016FD0"/>
<path d="M7.52734 11.3038V8.48242H9.85537V9.11355H8.24825V9.59617H9.81787V10.1901H8.24825V10.6912H9.85537V11.3038H7.52734Z" fill="#016FD0"/>
<path d="M10.2695 8.48242V11.3038H10.983V10.3015H11.2834L12.1388 11.3038H13.0107L12.072 10.2643C12.4572 10.2322 12.8546 9.90532 12.8546 9.3978C12.8546 8.8041 12.3832 8.48242 11.8572 8.48242H10.2695ZM10.983 9.11355H11.7985C11.9942 9.11355 12.1365 9.26482 12.1365 9.41055C12.1365 9.59797 11.9521 9.70755 11.8091 9.70755H10.983V9.11355Z" fill="#016FD0"/>
<path d="M13.8729 11.3038H13.1445V8.48242H13.8729V11.3038Z" fill="#016FD0"/>
<path d="M15.6027 11.3038H15.4454C14.6846 11.3038 14.2227 10.7112 14.2227 9.90472C14.2227 9.0783 14.6794 8.48242 15.6402 8.48242H16.4287V9.15067H15.6114C15.2214 9.15067 14.9455 9.45157 14.9455 9.9117C14.9455 10.4581 15.2609 10.6876 15.7152 10.6876H15.903L15.6027 11.3038Z" fill="#016FD0"/>
<path d="M17.157 8.48242L15.9297 11.3038H16.7288L16.9552 10.7389H18.2718L18.4971 11.3038H19.3138L18.0876 8.48242H17.157ZM17.6112 9.13905L18.0125 10.1263H17.2087L17.6112 9.13905Z" fill="#016FD0"/>
<path d="M19.3945 11.3038V8.48242H20.3016L21.4598 10.255V8.48242H22.1732V11.3038H21.2954L20.1079 9.4848V11.3038H19.3945Z" fill="#016FD0"/>
<path d="M5.19922 16.2422V13.4209H7.52728V14.052H5.92017V14.5346H7.48973V15.1286H5.92017V15.6297H7.52728V16.2422H5.19922Z" fill="#016FD0"/>
<path d="M16.6055 16.2422V13.4209H18.9336V14.052H17.3265V14.5346H18.8885V15.1286H17.3265V15.6297H18.9336V16.2422H16.6055Z" fill="#016FD0"/>
<path d="M7.62072 16.2422L8.75428 14.849L7.59375 13.4209H8.49254L9.18375 14.3037L9.87723 13.4209H10.7409L9.59557 14.8316L10.7312 16.2422H9.83246L9.1614 15.3734L8.50663 16.2422H7.62072Z" fill="#016FD0"/>
<path d="M10.8164 13.4209V16.2422H11.5486V15.3513H12.2996C12.935 15.3513 13.4167 15.018 13.4167 14.3699C13.4167 13.8329 13.0389 13.4209 12.3923 13.4209H10.8164ZM11.5486 14.059H12.3395C12.5447 14.059 12.6915 14.1833 12.6915 14.3838C12.6915 14.5721 12.5455 14.7086 12.3372 14.7086H11.5486V14.059Z" fill="#016FD0"/>
<path d="M13.7227 13.4209V16.2422H14.4361V15.2399H14.7365L15.5919 16.2422H16.4638L15.5251 15.2028C15.9103 15.1706 16.3077 14.8438 16.3077 14.3362C16.3077 13.7425 15.8364 13.4209 15.3103 13.4209H13.7227ZM14.4361 14.052H15.2517C15.4473 14.052 15.5896 14.2033 15.5896 14.349C15.5896 14.5364 15.4052 14.6459 15.2622 14.6459H14.4361V14.052Z" fill="#016FD0"/>
<path d="M19.2664 16.2422V15.6297H20.6942C20.9055 15.6297 20.9969 15.5168 20.9969 15.3931C20.9969 15.2744 20.9057 15.1546 20.6942 15.1546H20.049C19.4881 15.1546 19.1758 14.8167 19.1758 14.3096C19.1758 13.8572 19.4618 13.4209 20.2953 13.4209H21.6846L21.3841 14.0557H20.1826C19.9529 14.0557 19.8821 14.1749 19.8821 14.2886C19.8821 14.4056 19.9696 14.5346 20.145 14.5346H20.8209C21.4461 14.5346 21.7174 14.8852 21.7174 15.3443C21.7174 15.838 21.4151 16.2422 20.7868 16.2422H19.2664Z" fill="#016FD0"/>
<path d="M21.8875 16.2422V15.6297H23.3153C23.5266 15.6297 23.618 15.5168 23.618 15.3931C23.618 15.2744 23.5269 15.1546 23.3153 15.1546H22.6701C22.1092 15.1546 21.7969 14.8167 21.7969 14.3096C21.7969 13.8572 22.0829 13.4209 22.9163 13.4209H24.3057L24.0053 14.0557H22.8037C22.574 14.0557 22.5033 14.1749 22.5033 14.2886C22.5033 14.4056 22.5907 14.5346 22.7661 14.5346H23.442C24.0673 14.5346 24.3385 14.8852 24.3385 15.3443C24.3385 15.838 24.0362 16.2422 23.408 16.2422H21.8875Z" fill="#016FD0"/>
</g>
<defs>
<clipPath id="clip0_1_76">
<rect width="25" height="24" fill="white"/>
</clipPath>
</defs>
</svg>
