<svg width="24" height="24" viewBox="0 0 24 24" fill="none" xmlns="http://www.w3.org/2000/svg">
<g clip-path="url(#clip0_1_70)">
<path d="M24 0H0V24H24V0Z" fill="white"/>
<path d="M18.5013 5.29199H5.5013C3.72939 5.29199 2.29297 6.72841 2.29297 8.50032V15.5004C2.29297 17.2723 3.72939 18.7087 5.5013 18.7087H18.5013C20.2733 18.7087 21.7097 17.2723 21.7097 15.5004V8.50032C21.7097 6.72841 20.2733 5.29199 18.5013 5.29199Z" fill="white" stroke="#D9D9D9" stroke-width="0.583333"/>
<path fill-rule="evenodd" clip-rule="evenodd" d="M12.5008 15.0431C11.8122 15.6398 10.9186 16 9.94217 16C7.76497 16 6 14.2091 6 12C6 9.79086 7.76497 8 9.94217 8C10.9186 8 11.8122 8.36023 12.5008 8.95686C13.1893 8.36023 14.0829 8 15.0594 8C17.2366 8 19.0015 9.79086 19.0015 12C19.0015 14.2091 17.2366 16 15.0594 16C14.0829 16 13.1893 15.6398 12.5008 15.0431Z" fill="#ED0006"/>
<path fill-rule="evenodd" clip-rule="evenodd" d="M12.4961 15.0431C13.3428 14.3095 13.8797 13.2184 13.8797 12C13.8797 10.7816 13.3428 9.69052 12.4961 8.95686C13.1847 8.36023 14.0782 8 15.0547 8C17.2319 8 18.9969 9.79086 18.9969 12C18.9969 14.2091 17.2319 16 15.0547 16C14.0782 16 13.1847 15.6398 12.4961 15.0431Z" fill="#F9A000"/>
<path fill-rule="evenodd" clip-rule="evenodd" d="M12.4925 15.0414C13.3395 14.3077 13.8765 13.2164 13.8765 11.9978C13.8765 10.7797 13.3399 9.68874 12.4934 8.95508C11.6464 9.68874 11.1094 10.7801 11.1094 11.9986C11.1094 13.2168 11.646 14.3077 12.4925 15.0414Z" fill="#FF5E00"/>
</g>
<defs>
<clipPath id="clip0_1_70">
<rect width="24" height="24" fill="white"/>
</clipPath>
</defs>
</svg>
