<svg width="56" height="24" viewBox="0 0 56 24" fill="none" xmlns="http://www.w3.org/2000/svg">
<g clip-path="url(#clip0_1_101)">
<path fill-rule="evenodd" clip-rule="evenodd" d="M30.3249 3.19141L26.4198 4.04036V0.833224L30.3249 0V3.19141ZM38.4536 4.96726C36.929 4.96726 35.9488 5.69043 35.4043 6.19352L35.202 5.21879H31.7794V23.5498L35.6688 22.7165L35.6843 18.2675C36.2444 18.6761 37.069 19.2579 38.4381 19.2579C41.2229 19.2579 43.7588 16.994 43.7588 12.0104C43.7432 7.45121 41.1763 4.96726 38.4536 4.96726ZM37.5206 15.7972C36.6027 15.7972 36.0582 15.467 35.6848 15.0584L35.6692 9.22575C36.0737 8.76983 36.6338 8.45541 37.5206 8.45541C38.9364 8.45541 39.9165 10.059 39.9165 12.1185C39.9165 14.2251 38.9519 15.7972 37.5206 15.7972ZM55.9999 12.1726C55.9999 8.14798 54.0708 4.97229 50.3836 4.97229C46.6808 4.97229 44.4405 8.14798 44.4405 12.1412C44.4405 16.8733 47.0853 19.2628 50.8815 19.2628C52.7328 19.2628 54.133 18.8384 55.1909 18.241V15.0968C54.133 15.6313 52.9195 15.9614 51.3792 15.9614C49.8702 15.9614 48.5322 15.4269 48.3611 13.5718H55.9688C55.9688 13.4852 55.9744 13.2883 55.9808 13.0616C55.9896 12.7534 55.9999 12.39 55.9999 12.1726ZM48.3078 10.6807C48.3078 8.90415 49.3812 8.16526 50.3614 8.16526C51.3104 8.16526 52.3217 8.90415 52.3217 10.6807H48.3078ZM26.4198 5.23222H30.3249V18.9883H26.4198V5.23222ZM21.9853 5.23373L22.2342 6.3971C23.1521 4.69921 24.9723 5.04507 25.4702 5.23373V8.84962C24.988 8.67668 23.4321 8.45659 22.5143 9.66712V18.9898H18.6248V5.23373H21.9853ZM14.4522 1.82088L10.6561 2.63839L10.6405 15.2311C10.6405 17.5579 12.3674 19.2715 14.67 19.2715C15.9457 19.2715 16.8792 19.0356 17.3926 18.7526V15.5613C16.8948 15.7656 14.4366 16.4888 14.4366 14.1621V8.58101H17.3926V5.23239H14.4366L14.4522 1.82088ZM5.25852 8.3791C4.43396 8.3791 3.93611 8.61492 3.93611 9.22804C3.93611 9.89748 4.79291 10.192 5.85588 10.5573C7.58875 11.1529 9.86953 11.9368 9.87918 14.8405C9.87918 17.6546 7.65441 19.274 4.4184 19.274C3.08043 19.274 1.618 19.0067 0.171135 18.3778V14.6362C1.47799 15.3593 3.1271 15.8939 4.4184 15.8939C5.28963 15.8939 5.91194 15.658 5.91194 14.9349C5.91194 14.1934 4.98315 13.8544 3.86185 13.4452C2.15417 12.822 0 12.0359 0 9.41671C0 6.63404 2.1003 4.96759 5.25852 4.96759C6.54981 4.96759 7.82555 5.17197 9.11684 5.69077V9.38527C7.93446 8.74069 6.4409 8.3791 5.25852 8.3791Z" fill="white"/>
</g>
<defs>
<clipPath id="clip0_1_101">
<rect width="56" height="24" fill="white"/>
</clipPath>
</defs>
</svg>
