<svg width="36" height="24" viewBox="0 0 36 24" fill="none" xmlns="http://www.w3.org/2000/svg">
<path d="M6.81879 0H15.5095C16.7226 0 17.4771 1.0885 17.1941 2.42836L13.148 21.5512C12.8625 22.8864 11.6478 23.9758 10.4338 23.9758H1.74403C0.53259 23.9758 -0.223636 22.8864 0.0593662 21.5512L4.10718 2.42836C4.39019 1.0885 5.60417 0 6.81879 0Z" fill="#DD2423"/>
<path d="M14.787 0H24.781C25.994 0 25.447 1.0885 25.1617 2.42836L21.1162 21.5512C20.8324 22.8864 20.9209 23.9758 19.7054 23.9758H9.71139C8.49592 23.9758 7.74372 22.8864 8.02927 21.5512L12.0745 2.42836C12.3618 1.0885 13.5732 0 14.787 0Z" fill="#16315E"/>
<path d="M24.3842 0H33.0749C34.2897 0 35.0443 1.0885 34.7589 2.42836L30.7135 21.5512C30.4279 22.8864 29.2124 23.9758 27.9978 23.9758H19.3112C18.0957 23.9758 17.3418 22.8864 17.6265 21.5512L21.6726 2.42836C21.9556 1.0885 23.1688 0 24.3842 0Z" fill="#036862"/>
<path d="M9.08659 6.12849C8.19289 6.13852 7.92895 6.12849 7.84465 6.10657C7.81224 6.2761 7.20916 9.33848 7.20747 9.34105C7.07762 9.96062 6.98314 10.4023 6.66222 10.6874C6.48005 10.8532 6.26738 10.9332 6.02081 10.9332C5.62448 10.9332 5.39359 10.7166 5.35482 10.3057L5.34741 10.1647C5.34741 10.1647 5.46815 9.33475 5.46815 9.33009C5.46815 9.33009 6.10109 6.53936 6.21442 6.17046C6.22035 6.14948 6.22205 6.13852 6.22353 6.12849C4.99154 6.14038 4.77314 6.12849 4.7581 6.10657C4.74984 6.13665 4.71934 6.30967 4.71934 6.30967L4.07305 9.45508L4.01755 9.72184L3.91016 10.5944C3.91016 10.8532 3.95633 11.0645 4.04827 11.2431C4.34271 11.8095 5.18261 11.8944 5.65774 11.8944C6.26992 11.8944 6.84418 11.7512 7.23225 11.4898C7.90587 11.0517 8.08211 10.3668 8.23928 9.75821L8.31215 9.44598C8.31215 9.44598 8.96416 6.54752 9.07494 6.17046C9.07918 6.14948 9.08087 6.13852 9.08659 6.12849ZM11.305 8.46671C11.1478 8.46671 10.8606 8.50868 10.6026 8.64789C10.509 8.70082 10.4204 8.76192 10.327 8.82278L10.4113 8.48769L10.3651 8.43126C9.81797 8.55322 9.69554 8.56954 9.19011 8.64789L9.14775 8.6789C9.08907 9.21452 9.03696 9.61723 8.81942 10.6701C8.73659 11.0581 8.65059 11.4498 8.56437 11.8369L8.58768 11.8861C9.1056 11.856 9.26277 11.856 9.71291 11.8642L9.74934 11.8206C9.80653 11.4981 9.81395 11.4225 9.94062 10.7694C10.0001 10.4597 10.1243 9.77929 10.1855 9.53702C10.298 9.47965 10.409 9.42322 10.5149 9.42322C10.7672 9.42322 10.7365 9.6655 10.7267 9.76204C10.7159 9.9241 10.624 10.4534 10.5297 10.9079L10.4668 11.2012C10.423 11.4179 10.3749 11.6284 10.331 11.8432L10.3501 11.8861C10.8606 11.856 11.0163 11.856 11.4522 11.8642L11.5035 11.8206C11.5823 11.3169 11.6054 11.1821 11.7452 10.4488L11.8155 10.1118C11.9521 9.45237 12.0208 9.11799 11.9174 8.84563C11.8081 8.54039 11.5459 8.46671 11.305 8.46671ZM13.7832 9.15714C13.5119 9.2145 13.3388 9.25274 13.1668 9.27746C12.9963 9.30754 12.83 9.33482 12.5678 9.37493L12.547 9.39568L12.5279 9.41224C12.5006 9.62723 12.4815 9.81308 12.4453 10.0316C12.4146 10.2575 12.3674 10.5143 12.2905 10.8832C12.2309 11.1655 12.2002 11.2639 12.1663 11.3633C12.1333 11.4626 12.0969 11.5592 12.0299 11.8369L12.0456 11.8625L12.0587 11.8861C12.3038 11.8733 12.4642 11.8642 12.629 11.8625C12.7936 11.856 12.9641 11.8625 13.228 11.8642L13.2511 11.8434L13.2759 11.8206C13.314 11.5701 13.3197 11.5027 13.343 11.3805C13.3661 11.2495 13.406 11.0681 13.5036 10.5835C13.5498 10.3559 13.6013 10.129 13.6491 9.89679C13.6989 9.66548 13.751 9.43766 13.8006 9.21007L13.7932 9.18255L13.7832 9.15714ZM13.789 8.22623C13.5424 8.06603 13.1097 8.11686 12.8184 8.33815C12.528 8.55501 12.4949 8.86281 12.7407 9.02511C12.983 9.18088 13.4175 9.13447 13.7062 8.91132C13.996 8.68979 14.0322 8.38479 13.789 8.22623ZM15.2802 11.9363C15.779 11.9363 16.2904 11.7849 16.6753 11.3358C16.9714 10.9716 17.1072 10.4297 17.1542 10.2065C17.3074 9.46687 17.1881 9.12153 17.0383 8.9112C16.8108 8.59057 16.4088 8.48774 15.9917 8.48774C15.7409 8.48774 15.1435 8.51502 14.6769 8.98862C14.3418 9.33023 14.1869 9.7938 14.0935 10.2382C13.9992 10.6911 13.8908 11.5063 14.5718 11.8097C14.7819 11.909 15.0849 11.9363 15.2802 11.9363ZM15.2412 10.2721C15.3562 9.71195 15.492 9.24185 15.8385 9.24185C16.1101 9.24185 16.1298 9.59163 16.0091 10.1536C15.9875 10.2784 15.8883 10.7422 15.7542 10.9397C15.6606 11.0854 15.5498 11.1738 15.4274 11.1738C15.391 11.1738 15.1743 11.1738 15.1709 10.8196C15.1692 10.6447 15.2016 10.4661 15.2412 10.2721ZM18.4012 11.8642L18.4402 11.8206C18.4955 11.4982 18.5046 11.4224 18.627 10.7695C18.6883 10.4598 18.8149 9.77936 18.8745 9.53709C18.9872 9.47949 19.0962 9.42306 19.2055 9.42306C19.4561 9.42306 19.4256 9.66534 19.4157 9.76187C19.4066 9.92417 19.3146 10.4533 19.2187 10.9077L19.1592 11.2011C19.1136 11.4179 19.064 11.6283 19.0202 11.8433L19.0393 11.8862C19.5515 11.8561 19.7012 11.8561 20.1397 11.8642L20.1927 11.8206C20.2696 11.3167 20.2903 11.182 20.4344 10.4488L20.503 10.1116C20.6403 9.45221 20.7097 9.11806 20.6081 8.8457C20.4956 8.54046 20.2316 8.46678 19.9942 8.46678C19.8368 8.46678 19.5481 8.50852 19.2915 8.64796C19.1998 8.70089 19.1079 8.76175 19.0177 8.82285L19.0962 8.48776L19.0541 8.4311C18.5072 8.55329 18.3822 8.56961 17.8774 8.64796L17.8386 8.67897C17.7774 9.21459 17.7276 9.61707 17.5101 10.6701C17.4273 11.0581 17.3412 11.4499 17.2552 11.837L17.2783 11.8862C17.7971 11.8561 17.952 11.8561 18.4012 11.8642ZM22.1645 11.8861C22.1967 11.713 22.3879 10.6875 22.3896 10.6875C22.3896 10.6875 22.5525 9.93501 22.5625 9.90773C22.5625 9.90773 22.6138 9.82938 22.665 9.79837H22.7404C23.452 9.79837 24.2554 9.79837 24.8852 9.2884C25.3137 8.93862 25.6067 8.42212 25.7374 7.7944C25.7713 7.64049 25.7963 7.45745 25.7963 7.2744C25.7963 7.03399 25.7524 6.79614 25.6257 6.61029C25.3046 6.11571 24.6651 6.10662 23.9269 6.10289C23.9245 6.10289 23.563 6.10662 23.563 6.10662C22.618 6.11944 22.239 6.11571 22.0833 6.09473C22.0702 6.17051 22.0454 6.30529 22.0454 6.30529C22.0454 6.30529 21.7069 8.03224 21.7069 8.03504C21.7069 8.03504 20.8969 11.7067 20.8588 11.8798C21.6838 11.8688 22.0221 11.8688 22.1645 11.8861ZM22.7917 8.8183C22.7917 8.8183 23.1516 7.09485 23.1499 7.10138L23.1615 7.013L23.1666 6.94561L23.3105 6.96193C23.3105 6.96193 24.0527 7.03212 24.0701 7.03399C24.363 7.15874 24.4838 7.4803 24.3995 7.90003C24.3226 8.28361 24.0965 8.6061 23.8061 8.76187C23.567 8.89385 23.274 8.90481 22.9722 8.90481H22.7769L22.7917 8.8183ZM25.0325 10.304C24.9374 10.7503 24.8281 11.5655 25.5057 11.856C25.7218 11.9572 25.9154 11.9873 26.1122 11.9764C26.32 11.964 26.5125 11.8493 26.6909 11.6842C26.6748 11.752 26.6587 11.8199 26.6426 11.888L26.6733 11.9316C27.1607 11.909 27.312 11.909 27.8401 11.9134L27.8879 11.8733C27.965 11.3743 28.0377 10.8897 28.2381 9.93508C28.3357 9.47781 28.4332 9.02497 28.5334 8.56956L28.5177 8.51943C27.9724 8.63066 27.8267 8.65444 27.3022 8.73629L27.2624 8.77197C27.2571 8.81837 27.2516 8.86291 27.2465 8.90745C27.165 8.76241 27.0468 8.63859 26.8644 8.5614C26.6312 8.46044 26.0834 8.59055 25.6125 9.06251C25.2816 9.39946 25.1227 9.86116 25.0325 10.304ZM26.1776 10.3313C26.2943 9.78118 26.4284 9.31575 26.7758 9.31575C26.9955 9.31575 27.1112 9.53891 27.0876 9.91946C27.069 10.0144 27.0489 10.1144 27.0249 10.2275C26.9902 10.391 26.9525 10.553 26.9158 10.7153C26.8786 10.8263 26.8351 10.931 26.7875 11.0007C26.6981 11.1402 26.4854 11.2267 26.363 11.2267C26.3282 11.2267 26.1139 11.2267 26.1065 10.8788C26.1048 10.7055 26.1372 10.5271 26.1776 10.3313ZM32.1576 8.51498L32.1155 8.46204C31.576 8.58237 31.4783 8.60149 30.9826 8.67517L30.9462 8.71528C30.9445 8.72181 30.943 8.73184 30.9405 8.74093L30.9388 8.73184C30.5698 9.669 30.5806 9.46683 30.2802 10.2046C30.2785 10.171 30.2785 10.1501 30.2768 10.1144L30.2016 8.51498L30.1544 8.46204C29.5892 8.58237 29.5759 8.60149 29.0539 8.67517L29.0133 8.71528C29.0075 8.7344 29.0075 8.75539 29.0042 8.77824L29.0075 8.7864C29.0728 9.15343 29.0571 9.07158 29.1226 9.65081C29.1531 9.93506 29.1937 10.2209 29.2242 10.5017C29.2757 10.9716 29.3045 11.2029 29.3674 11.9199C29.015 12.5602 28.9315 12.8025 28.5921 13.3645L28.5945 13.3701L28.3555 13.7861C28.3282 13.8299 28.3034 13.86 28.2687 13.8728C28.2306 13.8936 28.181 13.8973 28.1121 13.8973H27.9798L27.783 14.6178L28.4581 14.6307C28.8544 14.6288 29.1035 14.4248 29.2376 14.1505L29.6621 13.3498H29.6553L29.7 13.2934C29.9856 12.6167 32.1576 8.51498 32.1576 8.51498ZM25.0325 17.9781H24.7461L25.8061 14.1187H26.1577L26.2693 13.7211L26.2801 14.1632C26.267 14.4365 26.4623 14.6788 26.9754 14.6387H27.5687L27.7729 13.8956H27.5496C27.4212 13.8956 27.3617 13.8599 27.3691 13.7834L27.3583 13.3336H26.2596V13.3359C25.9043 13.3441 24.8435 13.3735 24.6287 13.4364C24.3688 13.5101 24.0949 13.727 24.0949 13.727L24.2025 13.3289H23.1747L22.9606 14.1187L21.8864 18.0371H21.678L21.4735 18.7749H23.5207L23.452 19.0209H24.4607L24.5277 18.7749H24.8107L25.0325 17.9781ZM24.1926 14.9029C24.028 14.953 23.7217 15.1051 23.7217 15.1051L23.9941 14.1187H24.8107L24.6137 14.8374C24.6137 14.8374 24.3614 14.8537 24.1926 14.9029ZM24.2082 16.312C24.2082 16.312 23.9517 16.3475 23.7829 16.3894C23.6166 16.4449 23.3048 16.6198 23.3048 16.6198L23.5861 15.5934H24.4069L24.2082 16.312ZM23.7507 17.9872H22.9316L23.169 17.1209H23.9856L23.7507 17.9872ZM25.7234 15.5934H26.9041L26.7344 16.1982H25.538L25.3584 16.8595H26.4052L25.6126 18.0882C25.5571 18.1784 25.5073 18.2104 25.452 18.2358C25.3965 18.2668 25.3236 18.3032 25.2393 18.3032H24.9489L24.7494 19.0274H25.509C25.9038 19.0274 26.1371 18.8297 26.3093 18.5702L26.8528 17.7512L26.9695 18.5828C26.9943 18.7385 27.096 18.8297 27.1649 18.8651C27.2409 18.9071 27.3195 18.9792 27.4305 18.9899C27.5495 18.9955 27.6355 18.9999 27.6927 18.9999H28.066L28.2901 18.1894H28.1429C28.0583 18.1894 27.9128 18.1738 27.888 18.1446C27.8632 18.1092 27.8632 18.0546 27.8499 17.9716L27.7315 17.1382H27.2466L27.4593 16.8595H28.6534L28.837 16.1982H27.7315L27.9037 15.5934H29.0058L29.2103 14.8474H25.9244L25.7234 15.5934ZM15.7509 18.1556L16.0265 17.1464H17.1591L17.3661 16.3958H16.2324L16.4054 15.7746H17.5133L17.7186 15.0478H14.9466L14.7456 15.7746H15.3753L15.2073 16.3958H14.5759L14.3666 17.1592H14.9961L14.6288 18.4944C14.5793 18.6712 14.6521 18.7386 14.6983 18.8207C14.7456 18.9007 14.7934 18.9536 14.901 18.9837C15.012 19.011 15.0881 19.0273 15.1915 19.0273H16.4684L16.6959 18.1957L16.1298 18.2813C16.0205 18.2813 15.7178 18.2669 15.7509 18.1556ZM15.8808 13.3244L15.5938 13.8954C15.5323 14.0202 15.4771 14.0976 15.4273 14.1333C15.3834 14.1634 15.2966 14.176 15.1708 14.176H15.021L14.8208 14.9065H15.3182C15.5573 14.9065 15.741 14.81 15.8287 14.7617C15.923 14.7062 15.9477 14.7379 16.0206 14.6605L16.1886 14.5003H17.7417L17.9478 13.7397H16.8109L17.0094 13.3244H15.8808ZM18.1737 18.1703C18.1472 18.1283 18.1663 18.0544 18.2068 17.9005L18.6313 16.3538H20.1414C20.3615 16.3503 20.5203 16.3475 20.6237 16.3394C20.7347 16.3265 20.8555 16.2829 20.987 16.2046C21.1228 16.1225 21.1923 16.036 21.2509 15.9366C21.3164 15.8375 21.4215 15.6207 21.5117 15.2863L22.0453 13.329L20.4782 13.339C20.4782 13.339 19.9956 13.4173 19.7832 13.5039C19.5688 13.6004 19.2625 13.8699 19.2625 13.8699L19.404 13.3334H18.436L17.0807 18.2813C17.0326 18.4734 17.0004 18.6129 16.993 18.6966C16.9904 18.7868 17.0964 18.8761 17.165 18.9435C17.2461 19.0109 17.366 19 17.481 19.0109C17.602 19.021 17.774 19.0272 18.0115 19.0272H18.7554L18.9837 18.1785L18.3178 18.2477C18.2466 18.2477 18.1951 18.2057 18.1737 18.1703ZM18.9052 15.3092H20.4913L20.3905 15.6571C20.3763 15.6652 20.3424 15.6398 20.181 15.6608H18.8075L18.9052 15.3092ZM19.2229 14.1423H20.8224L20.7074 14.5613C20.7074 14.5613 19.9535 14.5532 19.8327 14.5777C19.3015 14.6789 18.9912 14.9913 18.9912 14.9913L19.2229 14.1423ZM20.426 16.8221C20.4129 16.8741 20.3921 16.9058 20.3631 16.9296C20.3309 16.9525 20.2788 16.9606 20.201 16.9606H19.975L19.9884 16.5369H19.0483L19.0101 18.6083C19.0087 18.7578 19.0218 18.8443 19.1211 18.9135C19.2205 19 19.5266 19.011 19.9386 19.011H20.5277L20.7403 18.2357L20.2275 18.2667L20.057 18.2776C20.0337 18.2667 20.0114 18.2566 19.9867 18.2294C19.9651 18.2058 19.9286 18.2203 19.9346 18.0708L19.9386 17.5398L20.4764 17.5154C20.7668 17.5154 20.891 17.4114 20.9969 17.3123C21.0979 17.2174 21.131 17.1082 21.1691 16.9606L21.2593 16.4905H20.5203L20.426 16.8221Z" fill="#FEFEFE"/>
</svg>
