<svg width="121" height="23" viewBox="0 0 121 23" fill="none" xmlns="http://www.w3.org/2000/svg">
<path d="M14.6171 19.1089C14.8168 17.9307 14.3974 16.7126 13.4988 15.9138C12.8598 15.3147 12.0011 14.9752 11.1224 14.9752C10.6032 14.9752 10.104 14.8554 9.64471 14.6158C9.04563 14.2963 8.56637 13.797 8.24686 13.198C8.42658 12.7387 8.50646 12.2394 8.50646 11.7003C8.50646 13.158 9.66468 14.3362 11.1025 14.3362H11.1624C12.5802 14.3162 13.7185 13.1381 13.7185 11.7003C13.7185 11.1811 13.8183 10.6818 13.9781 10.2026C14.2576 9.4637 14.7369 8.80471 15.3759 8.32545C16.1547 7.72637 17.1132 7.44679 18.0718 7.48673C17.3928 6.32851 16.4343 5.35002 15.2761 4.65109C15.2761 4.711 15.2761 4.79088 15.2761 4.85078C15.2761 5.76937 14.9765 6.64802 14.4373 7.38688C14.2776 7.2471 14.0979 7.12729 13.9181 7.02744C14.3974 6.40839 14.637 5.64955 14.637 4.87075C14.637 4.41145 14.5572 3.95216 14.3774 3.51284C13.8582 2.2348 12.6401 1.33618 11.2023 1.29624H11.1025H11.0026C10.124 1.29624 9.26529 1.41606 8.42658 1.65569C4.89201 2.61422 2.11627 5.42989 1.17772 9.0044C0.578636 9.74327 0.219188 10.6419 0.199219 11.6004C0.259127 5.58965 5.05176 0.717135 11.0026 0.657227H11.1224C11.1823 0.657227 11.2223 0.657227 11.2822 0.657227C17.1931 0.757073 21.9658 5.58965 22.0257 11.6004C22.0257 11.6404 22.0257 11.6803 22.0257 11.7202C22.0257 11.7602 22.0257 11.8001 22.0257 11.84C22.0057 12.7986 21.6662 13.6972 21.0472 14.4361C20.4881 15.115 19.7092 15.6142 18.8506 15.8139C18.5311 15.8938 18.1916 15.9338 17.8721 15.9338C16.9735 15.9338 16.0948 15.6342 15.3759 15.095C15.1163 15.4545 14.7968 15.754 14.4573 16.0336C15.0364 16.8124 15.336 17.7909 15.2761 18.7694C16.4343 18.0705 17.3928 17.092 18.0718 15.9338C18.3314 15.9138 18.591 15.8738 18.8506 15.8139C18.0318 17.4115 16.7338 18.7095 15.1562 19.5482C13.9181 20.2072 12.5203 20.5467 11.1224 20.5467C10.5034 20.5467 9.92428 20.2471 9.56483 19.7679C9.30523 19.4084 9.16545 18.9891 9.16545 18.5497C9.16545 17.9507 9.44502 17.3915 9.86437 17.0321C10.2638 17.1319 10.7031 17.1918 11.1424 17.1918C10.4035 17.1918 9.7845 17.8109 9.7845 18.5697C9.7845 19.3285 10.3836 19.9476 11.1424 19.9476H11.1624C11.9012 19.9476 12.5203 19.3285 12.5203 18.5697C12.5203 17.8109 11.9212 17.1918 11.1624 17.1918C10.1639 17.1918 9.20539 16.9123 8.3467 16.3931C8.16698 16.2732 7.98726 16.1534 7.8275 16.0336C7.46805 15.754 7.16851 15.4345 6.88894 15.095C7.0487 14.9752 7.20845 14.8354 7.36821 14.6757C7.74762 15.1749 8.22689 15.6143 8.78603 15.9338C9.50492 16.3531 10.3237 16.5728 11.1624 16.5728C11.6416 16.5728 12.1009 16.7525 12.4404 17.052C12.8598 17.4115 13.1393 17.9706 13.1393 18.5697C13.1393 19.009 12.9996 19.4284 12.74 19.7878C13.3989 19.6481 14.038 19.4484 14.637 19.1488L14.6171 19.1089ZM19.0702 10.1227C18.9504 9.44373 18.7308 8.80471 18.4312 8.18566C17.4727 8.0259 16.4942 8.2855 15.7354 8.86461C14.8567 9.54357 14.3375 10.6019 14.3375 11.7202C14.3375 12.2594 14.2177 12.7586 13.9781 13.2179C13.6785 13.817 13.1793 14.3162 12.6002 14.6358C13.1393 14.8354 13.6186 15.155 14.038 15.5543C14.5372 15.1749 14.9566 14.6757 15.2561 14.1365C15.6754 13.3977 15.8951 12.5789 15.8951 11.7202C15.8951 11.221 16.0748 10.7817 16.3744 10.4222C16.7538 9.9829 17.293 9.7233 17.8721 9.7233C18.3114 9.7233 18.7308 9.86308 19.0702 10.1227ZM19.21 11.6603C19.19 10.9414 18.591 10.3623 17.8521 10.3423C17.0933 10.3423 16.4942 10.9614 16.4942 11.7003C16.4942 11.7202 16.4942 11.7402 16.4942 11.7402C16.5142 12.4791 17.1132 13.0582 17.8521 13.0582C18.6109 13.0582 19.21 12.4391 19.21 11.7003C19.21 11.7003 19.21 11.6803 19.21 11.6603ZM16.3744 13.0182C16.2346 13.5574 16.0349 14.0966 15.7354 14.5758C16.4942 15.1749 17.4727 15.4146 18.4312 15.2548C18.6908 15.2149 18.9504 15.135 19.21 15.0351C20.508 14.496 21.3667 13.2379 21.4066 11.8201V11.6404C21.4066 10.7617 21.2868 9.88305 21.0472 9.02437C20.1086 5.46983 17.3329 2.65415 13.8183 1.67566C14.4973 2.25477 14.9566 3.03357 15.1762 3.89225V3.91222C17.0134 4.89072 18.4312 6.48827 19.21 8.42529C19.6294 9.44373 19.849 10.562 19.849 11.7402C19.849 12.3792 19.5495 12.9583 19.0702 13.3178C18.7308 13.5774 18.3114 13.7371 17.8721 13.7371C17.273 13.7172 16.7338 13.4376 16.3744 13.0182ZM10.9627 22.7633C5.05177 22.6634 0.279096 17.8109 0.219188 11.8201V11.7003V11.5804C0.239157 10.6219 0.578636 9.7233 1.19769 8.98443C1.75683 8.30547 2.53563 7.82621 3.39431 7.60655C3.71382 7.52667 4.0533 7.48673 4.37281 7.48673C5.27143 7.48673 6.15008 7.78627 6.86897 8.32545C7.12857 7.966 7.44808 7.66646 7.78756 7.38688C7.20845 6.60808 6.90891 5.62959 6.94885 4.65109C5.79063 5.35002 4.8321 6.32851 4.15315 7.48673C3.89354 7.5067 3.63394 7.54664 3.37434 7.60655C4.19308 6.009 5.49109 4.71099 7.06867 3.87228C8.30677 3.2133 9.70462 2.87382 11.1025 2.87382C11.7215 2.87382 12.3006 3.17336 12.6601 3.65263C12.9197 3.9921 13.0595 4.41145 13.0595 4.87075C13.0595 5.4898 12.7799 6.02897 12.3605 6.38842C11.9412 6.28857 11.5218 6.22867 11.0825 6.22867C11.8214 6.22867 12.4404 5.60962 12.4404 4.85078C12.4404 4.09195 11.8413 3.4729 11.0825 3.4729H11.0625C10.3237 3.4729 9.70462 4.09195 9.70462 4.85078C9.70462 5.60962 10.3037 6.22867 11.0625 6.22867C12.061 6.22867 13.0195 6.50824 13.8782 7.02744C14.0579 7.14726 14.2377 7.26707 14.3974 7.38688C14.7369 7.66646 15.0564 7.98597 15.336 8.32545C15.1762 8.44526 15.0165 8.58505 14.8567 8.7448C14.4773 8.24557 13.998 7.80624 13.4389 7.48673C12.72 7.06738 11.9012 6.84772 11.0625 6.84772C10.6032 6.84772 10.1439 6.66799 9.7845 6.36845C9.34517 5.98903 9.08557 5.42989 9.08557 4.85078C9.08557 4.39149 9.24532 3.97213 9.48495 3.63265C8.82597 3.77244 8.16698 3.9921 7.5679 4.27167C7.36821 5.44986 7.78756 6.66799 8.68618 7.46676C9.3252 8.06584 10.1839 8.40532 11.0625 8.40532C11.5817 8.40532 12.081 8.52514 12.5403 8.76477C13.1393 9.08428 13.6186 9.58351 13.9381 10.1826C13.7584 10.6619 13.6585 11.1611 13.6785 11.6803C13.6785 10.2225 12.5203 9.04434 11.0825 9.04434H11.0625C9.64471 9.06431 8.50646 10.2425 8.50646 11.6803C8.50646 12.1995 8.40661 12.6987 8.24686 13.178C7.96729 13.9169 7.48802 14.5758 6.849 15.0551C6.0702 15.6542 5.11167 15.9338 4.15315 15.8938C4.8321 17.052 5.79063 18.0305 6.94885 18.7295C6.90891 17.751 7.18848 16.7924 7.76759 16.0136C7.92735 16.1534 8.10707 16.2732 8.2868 16.3731C7.80753 16.9921 7.5679 17.751 7.5679 18.5298C7.5679 18.9891 7.64778 19.4484 7.8275 19.8877C8.3467 21.1657 9.56483 22.0643 11.0026 22.1043H11.1823C12.061 22.1043 12.9197 21.9845 13.7584 21.7448C17.293 20.7863 20.0687 17.9706 21.0073 14.3961C21.6063 13.6573 21.9658 12.7586 21.9858 11.8001C21.9258 17.8109 17.1332 22.6834 11.1823 22.7433H11.0625H10.9427C11.0026 22.7633 10.9627 22.7633 10.9627 22.7633ZM8.42658 21.7648C7.74762 21.1857 7.28833 20.4069 7.06867 19.5482C7.06867 19.5482 7.06867 19.5482 7.06867 19.5282C5.23149 18.5497 3.81367 16.9522 3.03486 15.0152C2.61551 13.9568 2.39584 12.8385 2.39584 11.7003C2.39584 11.0612 2.69538 10.4821 3.17465 10.1227C3.51413 9.86308 3.91351 9.70333 4.37281 9.70333C4.97189 9.70333 5.51106 9.9829 5.87051 10.4023C6.01029 9.84311 6.20999 9.32391 6.50953 8.84465C5.75069 8.24557 4.77219 8.00593 3.81367 8.16569C3.5341 8.20563 3.29446 8.2855 3.03486 8.38535C1.73686 8.92452 0.878176 10.1826 0.838237 11.6004C0.838237 11.6404 0.838237 11.6603 0.838237 11.7003V11.8001C0.838237 12.6788 0.958053 13.5574 1.19769 14.4161C2.15621 17.9906 4.91198 20.8063 8.42658 21.7648ZM3.81367 15.2548C4.77219 15.4146 5.75069 15.155 6.50953 14.5758C7.38818 13.8969 7.90738 12.8385 7.90738 11.7202C7.90738 11.1811 8.02719 10.6818 8.26683 10.2225C8.56637 9.62345 9.0656 9.12422 9.64471 8.80471H9.62474C9.08557 8.60501 8.60631 8.2855 8.18695 7.88612C7.68772 8.26553 7.26836 8.76477 6.96882 9.30394C6.54946 10.0428 6.3298 10.8615 6.3298 11.7202C6.3298 12.2195 6.15008 12.6588 5.85054 13.0182C5.47112 13.4576 4.93195 13.7172 4.35284 13.7172C3.89354 13.7172 3.49416 13.5574 3.15468 13.2978C3.31443 13.9768 3.5341 14.6357 3.81367 15.2548ZM3.03486 11.7801C3.0748 12.499 3.65391 13.0981 4.39278 13.0981C5.15161 13.0981 5.75069 12.4791 5.75069 11.7402C5.75069 11.7202 5.75069 11.7003 5.75069 11.7003C5.73072 10.9614 5.13164 10.3823 4.39278 10.3823C3.63394 10.3823 3.03486 11.0013 3.03486 11.7602C3.03486 11.7402 3.03486 11.7602 3.03486 11.7801ZM30.7922 5.92913H33.7876L36.5833 13.5574H36.6233L39.379 5.92913H42.3744V16.6726H40.4773V8.04588H40.4574L37.2024 16.6726H35.8644L32.6494 8.04588H32.6294V16.6726H30.8122L30.7922 5.92913ZM47.6064 5.92913H54.7155V7.60655H49.5235V10.3423H54.4559V11.9399H49.5035V14.9752H54.9751V16.6726H47.5864L47.6064 5.92913ZM63.1825 10.562C63.462 10.562 63.7216 10.542 64.0012 10.5021C64.2608 10.4622 64.5004 10.3823 64.7401 10.2824C64.9597 10.1626 65.1395 10.0029 65.2793 9.80317C65.419 9.60348 65.4989 9.32391 65.4989 9.0044C65.4989 8.70486 65.439 8.46523 65.2992 8.2855C65.1594 8.10578 64.9997 7.94603 64.8 7.84618C64.5803 7.72637 64.3607 7.64649 64.1011 7.62652C63.8614 7.58658 63.6018 7.56661 63.3422 7.56661H61.6049V10.582C61.6249 10.562 63.1825 10.562 63.1825 10.562ZM59.7078 5.92913H63.4421C63.9413 5.92913 64.4405 5.98903 64.9198 6.08888C65.3791 6.18873 65.7985 6.36845 66.1779 6.60808C66.5373 6.84771 66.8568 7.18719 67.0565 7.56661C67.2762 7.96599 67.396 8.44526 67.396 9.0044C67.396 9.78321 67.1763 10.4222 66.737 10.9015C66.2977 11.4007 65.6986 11.7202 64.9398 11.9L67.7954 16.6526H65.4989L63.0227 12.0996H61.6249V16.6526H59.7078V5.92913ZM79.8569 8.44526C79.5773 8.06585 79.1979 7.7663 78.7585 7.60655C78.3392 7.42683 77.8799 7.34695 77.4206 7.34695C76.9014 7.34695 76.3822 7.4468 75.9029 7.64649C75.4636 7.84618 75.0642 8.12575 74.7247 8.4852C74.3853 8.84465 74.1257 9.264 73.9659 9.7233C73.7862 10.2225 73.6863 10.7417 73.7063 11.2609C73.7063 11.84 73.7862 12.3792 73.9659 12.8585C74.1456 13.3377 74.3853 13.7571 74.7048 14.1166C75.0243 14.456 75.4037 14.7356 75.843 14.9353C76.2823 15.135 76.7816 15.2149 77.3407 15.2149C77.9198 15.2149 78.4191 15.095 78.8784 14.8754C79.2977 14.6557 79.6771 14.3562 79.9567 13.9768L81.4943 15.0551C81.035 15.6542 80.436 16.1135 79.757 16.433C79.0781 16.7525 78.2593 16.9322 77.3407 16.9322C76.502 16.9322 75.7232 16.7924 75.0243 16.5129C74.3453 16.2533 73.7263 15.8539 73.2071 15.3546C72.6879 14.8354 72.2885 14.2364 72.0289 13.5574C71.7493 12.8585 71.6095 12.0996 71.6095 11.2609C71.6095 10.4023 71.7493 9.62345 72.0489 8.92453C72.3484 8.2256 72.7478 7.64648 73.267 7.16722C73.8062 6.66799 74.4252 6.28858 75.1042 6.04894C76.1825 5.64956 77.3607 5.54971 78.479 5.7494C78.8584 5.80931 79.2178 5.90916 79.5573 6.04894C79.8968 6.18873 80.2163 6.34848 80.5358 6.54818C80.8354 6.74787 81.095 6.9875 81.3146 7.26707C81.3146 7.30701 79.8569 8.44526 79.8569 8.44526ZM94.075 12.7187C94.075 13.3577 93.9552 13.9568 93.7355 14.476C93.5358 14.9752 93.2163 15.4345 92.817 15.794C92.4176 16.1534 91.9583 16.453 91.459 16.6327C90.9199 16.8324 90.3208 16.9322 89.7417 16.9322C89.1626 16.9322 88.5835 16.8324 88.0243 16.6327C87.5251 16.453 87.0458 16.1534 86.6464 15.794C86.247 15.4146 85.9475 14.9752 85.7278 14.476C85.5082 13.9568 85.4083 13.3777 85.4083 12.7187V5.92913H87.3254V12.6388C87.3254 12.9583 87.3653 13.2579 87.4452 13.5774C87.5251 13.8769 87.6649 14.1565 87.8446 14.3961C88.0243 14.6358 88.2839 14.8354 88.5835 14.9952C88.883 15.155 89.2824 15.2149 89.7217 15.2149C90.181 15.2149 90.5604 15.135 90.86 14.9952C91.1595 14.8554 91.3991 14.6557 91.5988 14.3961C91.7785 14.1565 91.9183 13.8769 91.9982 13.5774C92.0781 13.2778 92.118 12.9583 92.118 12.6388V5.92913H94.0351C94.075 5.92913 94.075 12.7187 94.075 12.7187ZM102.682 10.562C102.961 10.562 103.221 10.542 103.501 10.5021C103.78 10.4622 104.02 10.3823 104.239 10.2824C104.459 10.1626 104.639 10.0029 104.779 9.80317C104.918 9.60348 104.998 9.32391 104.998 9.0044C104.998 8.70486 104.938 8.46523 104.799 8.2855C104.679 8.10578 104.499 7.94603 104.299 7.84618C104.08 7.72637 103.86 7.64649 103.6 7.62652C103.361 7.58658 103.101 7.56661 102.842 7.56661H101.104V10.582C101.124 10.562 102.682 10.562 102.682 10.562ZM99.2071 5.92913H102.941C103.441 5.92913 103.94 5.98903 104.419 6.08888C104.878 6.18873 105.298 6.36845 105.677 6.60808C106.037 6.84771 106.336 7.16722 106.556 7.56661C106.776 7.96599 106.895 8.44526 106.895 9.0044C106.895 9.78321 106.676 10.4222 106.236 10.9015C105.797 11.4007 105.198 11.7202 104.439 11.9L107.295 16.6526H104.998L102.522 12.0996H101.124V16.6526H99.2071C99.2071 16.6726 99.2071 5.92913 99.2071 5.92913ZM114.104 12.0198L110.07 5.9491H112.407L115.103 10.4622L117.839 5.9491H120.055L116.021 12.0198V16.6726H114.104V12.0198Z" fill="white"/>
</svg>
